<svg width="144" height="144" viewBox="0 0 144 144" fill="none" xmlns="http://www.w3.org/2000/svg">
<g filter="url(#filter0_d_42_990)">
<circle cx="72" cy="57" r="28" fill="white"/>
</g>
<path d="M72 44.2C70.3026 44.2 68.6747 44.8743 67.4745 46.0745C66.2743 47.2748 65.6 48.9026 65.6 50.6C65.6 52.2974 66.2743 53.9253 67.4745 55.1255C68.6747 56.3257 70.3026 57 72 57C73.6974 57 75.3253 56.3257 76.5255 55.1255C77.7257 53.9253 78.4 52.2974 78.4 50.6C78.4 48.9026 77.7257 47.2748 76.5255 46.0745C75.3253 44.8743 73.6974 44.2 72 44.2ZM64.0144 58.6C63.593 58.5983 63.1754 58.6798 62.7856 58.8399C62.3958 58.9999 62.0414 59.2353 61.7428 59.5326C61.4442 59.8299 61.2072 60.1833 61.0454 60.5723C60.8836 60.9614 60.8002 61.3786 60.8 61.8C60.8 64.5056 62.1328 66.5456 64.216 67.8752C65.8928 68.944 68.048 69.552 70.4 69.736V63.4C70.4 62.5513 70.7371 61.7374 71.3373 61.1373C71.9374 60.5372 72.7513 60.2 73.6 60.2H82.7712C82.4903 59.7136 82.0864 59.3096 81.6 59.0288C81.1135 58.7479 80.5617 58.6 80 58.6H64.0144ZM86.4 64.2V69C86.4 69.6365 86.1471 70.247 85.6971 70.6971C85.247 71.1472 84.6365 71.4 84 71.4H74.4C73.7635 71.4 73.153 71.1472 72.7029 70.6971C72.2529 70.247 72 69.6365 72 69V64.2C72 63.5635 72.2529 62.953 72.7029 62.503C73.153 62.0529 73.7635 61.8 74.4 61.8H84C84.6365 61.8 85.247 62.0529 85.6971 62.503C86.1471 62.953 86.4 63.5635 86.4 64.2ZM84.8 69V67.4C84.1635 67.4 83.553 67.6529 83.1029 68.103C82.6529 68.553 82.4 69.1635 82.4 69.8H84C84 69.5878 84.0843 69.3844 84.2343 69.2343C84.3843 69.0843 84.5878 69 84.8 69ZM84.8 64.2C84.5878 64.2 84.3843 64.1157 84.2343 63.9657C84.0843 63.8157 84 63.6122 84 63.4H82.4C82.4 64.0365 82.6529 64.647 83.1029 65.0971C83.553 65.5472 84.1635 65.8 84.8 65.8V64.2ZM74.4 63.4C74.4 63.6122 74.3157 63.8157 74.1657 63.9657C74.0157 64.1157 73.8122 64.2 73.6 64.2V65.8C74.2365 65.8 74.847 65.5472 75.2971 65.0971C75.7471 64.647 76 64.0365 76 63.4H74.4ZM73.6 69C73.8122 69 74.0157 69.0843 74.1657 69.2343C74.3157 69.3844 74.4 69.5878 74.4 69.8H76C76 69.1635 75.7471 68.553 75.2971 68.103C74.847 67.6529 74.2365 67.4 73.6 67.4V69ZM79.2 64.2C78.5635 64.2 77.953 64.4529 77.5029 64.903C77.0529 65.353 76.8 65.9635 76.8 66.6C76.8 67.2365 77.0529 67.847 77.5029 68.2971C77.953 68.7472 78.5635 69 79.2 69C79.8365 69 80.447 68.7472 80.8971 68.2971C81.3471 67.847 81.6 67.2365 81.6 66.6C81.6 65.9635 81.3471 65.353 80.8971 64.903C80.447 64.4529 79.8365 64.2 79.2 64.2Z" fill="#FC377E"/>
<mask id="mask0_42_990" style="mask-type:alpha" maskUnits="userSpaceOnUse" x="60" y="44" width="27" height="28">
<path d="M72 44.2C70.3026 44.2 68.6747 44.8743 67.4745 46.0745C66.2743 47.2748 65.6 48.9026 65.6 50.6C65.6 52.2974 66.2743 53.9253 67.4745 55.1255C68.6747 56.3257 70.3026 57 72 57C73.6974 57 75.3253 56.3257 76.5255 55.1255C77.7257 53.9253 78.4 52.2974 78.4 50.6C78.4 48.9026 77.7257 47.2748 76.5255 46.0745C75.3253 44.8743 73.6974 44.2 72 44.2ZM64.0144 58.6C63.593 58.5983 63.1754 58.6798 62.7856 58.8399C62.3958 58.9999 62.0414 59.2353 61.7428 59.5326C61.4442 59.8299 61.2072 60.1833 61.0454 60.5723C60.8836 60.9614 60.8002 61.3786 60.8 61.8C60.8 64.5056 62.1328 66.5456 64.216 67.8752C65.8928 68.944 68.048 69.552 70.4 69.736V63.4C70.4 62.5513 70.7371 61.7374 71.3373 61.1373C71.9374 60.5372 72.7513 60.2 73.6 60.2H82.7712C82.4903 59.7136 82.0864 59.3096 81.6 59.0288C81.1135 58.7479 80.5617 58.6 80 58.6H64.0144ZM86.4 64.2V69C86.4 69.6365 86.1471 70.247 85.6971 70.6971C85.247 71.1472 84.6365 71.4 84 71.4H74.4C73.7635 71.4 73.153 71.1472 72.7029 70.6971C72.2529 70.247 72 69.6365 72 69V64.2C72 63.5635 72.2529 62.953 72.7029 62.503C73.153 62.0529 73.7635 61.8 74.4 61.8H84C84.6365 61.8 85.247 62.0529 85.6971 62.503C86.1471 62.953 86.4 63.5635 86.4 64.2ZM84.8 69V67.4C84.1635 67.4 83.553 67.6529 83.1029 68.103C82.6529 68.553 82.4 69.1635 82.4 69.8H84C84 69.5878 84.0843 69.3844 84.2343 69.2343C84.3843 69.0843 84.5878 69 84.8 69ZM84.8 64.2C84.5878 64.2 84.3843 64.1157 84.2343 63.9657C84.0843 63.8157 84 63.6122 84 63.4H82.4C82.4 64.0365 82.6529 64.647 83.1029 65.0971C83.553 65.5472 84.1635 65.8 84.8 65.8V64.2ZM74.4 63.4C74.4 63.6122 74.3157 63.8157 74.1657 63.9657C74.0157 64.1157 73.8122 64.2 73.6 64.2V65.8C74.2365 65.8 74.847 65.5472 75.2971 65.0971C75.7471 64.647 76 64.0365 76 63.4H74.4ZM73.6 69C73.8122 69 74.0157 69.0843 74.1657 69.2343C74.3157 69.3844 74.4 69.5878 74.4 69.8H76C76 69.1635 75.7471 68.553 75.2971 68.103C74.847 67.6529 74.2365 67.4 73.6 67.4V69ZM79.2 64.2C78.5635 64.2 77.953 64.4529 77.5029 64.903C77.0529 65.353 76.8 65.9635 76.8 66.6C76.8 67.2365 77.0529 67.847 77.5029 68.2971C77.953 68.7472 78.5635 69 79.2 69C79.8365 69 80.447 68.7472 80.8971 68.2971C81.3471 67.847 81.6 67.2365 81.6 66.6C81.6 65.9635 81.3471 65.353 80.8971 64.903C80.447 64.4529 79.8365 64.2 79.2 64.2Z" fill="#FC377E"/>
</mask>
<g mask="url(#mask0_42_990)">
<path d="M71 64C71 62.3431 72.3431 61 74 61H87V72H71V64Z" fill="#18AFF0"/>
</g>
<defs>
<filter id="filter0_d_42_990" x="0" y="0" width="144" height="144" filterUnits="userSpaceOnUse" color-interpolation-filters="sRGB">
<feFlood flood-opacity="0" result="BackgroundImageFix"/>
<feColorMatrix in="SourceAlpha" type="matrix" values="0 0 0 0 0 0 0 0 0 0 0 0 0 0 0 0 0 0 127 0" result="hardAlpha"/>
<feOffset dy="15"/>
<feGaussianBlur stdDeviation="22"/>
<feColorMatrix type="matrix" values="0 0 0 0 0.0509804 0 0 0 0 0.0588235 0 0 0 0 0.109804 0 0 0 0.12 0"/>
<feBlend mode="normal" in2="BackgroundImageFix" result="effect1_dropShadow_42_990"/>
<feBlend mode="normal" in="SourceGraphic" in2="effect1_dropShadow_42_990" result="shape"/>
</filter>
</defs>
</svg>
