<svg width="148" height="148" viewBox="0 0 148 148" fill="none" xmlns="http://www.w3.org/2000/svg">
<g filter="url(#filter0_d_42_856)">
<circle cx="74" cy="59" r="30" fill="white"/>
</g>
<path d="M76 57C76 58.0609 75.5786 59.0783 74.8284 59.8284C74.0783 60.5786 73.0609 61 72 61C70.9391 61 69.9217 60.5786 69.1716 59.8284C68.4214 59.0783 68 58.0609 68 57C68 55.9391 68.4214 54.9217 69.1716 54.1716C69.9217 53.4214 70.9391 53 72 53C73.0609 53 74.0783 53.4214 74.8284 54.1716C75.5786 54.9217 76 55.9391 76 57ZM74 57C74 56.4696 73.7893 55.9609 73.4142 55.5858C73.0391 55.2107 72.5304 55 72 55C71.4696 55 70.9609 55.2107 70.5858 55.5858C70.2107 55.9609 70 56.4696 70 57C70 57.5304 70.2107 58.0391 70.5858 58.4142C70.9609 58.7893 71.4696 59 72 59C72.5304 59 73.0391 58.7893 73.4142 58.4142C73.7893 58.0391 74 57.5304 74 57ZM60 51.5C60 50.12 61.12 49 62.5 49H81.5C82.88 49 84 50.12 84 51.5V62.5C84 63.88 82.88 65 81.5 65H62.5C61.12 65 60 63.88 60 62.5V51.5ZM62.5 51C62.3674 51 62.2402 51.0527 62.1464 51.1464C62.0527 51.2402 62 51.3674 62 51.5V53H63C63.2652 53 63.5196 52.8946 63.7071 52.7071C63.8946 52.5196 64 52.2652 64 52V51H62.5ZM62 62.5C62 62.776 62.224 63 62.5 63H64V62C64 61.7348 63.8946 61.4804 63.7071 61.2929C63.5196 61.1054 63.2652 61 63 61H62V62.5ZM66 62V63H78V62C78 61.2044 78.3161 60.4413 78.8787 59.8787C79.4413 59.3161 80.2044 59 81 59H82V55H81C80.2044 55 79.4413 54.6839 78.8787 54.1213C78.3161 53.5587 78 52.7956 78 52V51H66V52C66 52.7956 65.6839 53.5587 65.1213 54.1213C64.5587 54.6839 63.7956 55 63 55H62V59H63C63.7956 59 64.5587 59.3161 65.1213 59.8787C65.6839 60.4413 66 61.2044 66 62ZM80 63H81.5C81.6326 63 81.7598 62.9473 81.8536 62.8536C81.9473 62.7598 82 62.6326 82 62.5V61H81C80.7348 61 80.4804 61.1054 80.2929 61.2929C80.1054 61.4804 80 61.7348 80 62V63ZM82 53V51.5C82 51.3674 81.9473 51.2402 81.8536 51.1464C81.7598 51.0527 81.6326 51 81.5 51H80V52C80 52.2652 80.1054 52.5196 80.2929 52.7071C80.4804 52.8946 80.7348 53 81 53H82ZM67 69C66.3664 69.0002 65.7491 68.7999 65.2364 68.4277C64.7237 68.0555 64.342 67.5305 64.146 66.928C64.424 66.976 64.708 67 65 67H81.5C82.6935 67 83.8381 66.5259 84.682 65.682C85.5259 64.8381 86 63.6935 86 62.5V53.17C86.5852 53.3769 87.0917 53.7602 87.4499 54.267C87.8081 54.7739 88.0003 55.3793 88 56V62.5C88 63.3536 87.8319 64.1988 87.5052 64.9874C87.1786 65.7761 86.6998 66.4926 86.0962 67.0962C85.4926 67.6998 84.7761 68.1786 83.9874 68.5052C83.1988 68.8319 82.3536 69 81.5 69H67Z" fill="#18AFF0"/>
<mask id="mask0_42_856" style="mask-type:alpha" maskUnits="userSpaceOnUse" x="60" y="49" width="28" height="20">
<path d="M76 57C76 58.0609 75.5786 59.0783 74.8284 59.8284C74.0783 60.5786 73.0609 61 72 61C70.9391 61 69.9217 60.5786 69.1716 59.8284C68.4214 59.0783 68 58.0609 68 57C68 55.9391 68.4214 54.9217 69.1716 54.1716C69.9217 53.4214 70.9391 53 72 53C73.0609 53 74.0783 53.4214 74.8284 54.1716C75.5786 54.9217 76 55.9391 76 57ZM74 57C74 56.4696 73.7893 55.9609 73.4142 55.5858C73.0391 55.2107 72.5304 55 72 55C71.4696 55 70.9609 55.2107 70.5858 55.5858C70.2107 55.9609 70 56.4696 70 57C70 57.5304 70.2107 58.0391 70.5858 58.4142C70.9609 58.7893 71.4696 59 72 59C72.5304 59 73.0391 58.7893 73.4142 58.4142C73.7893 58.0391 74 57.5304 74 57ZM60 51.5C60 50.12 61.12 49 62.5 49H81.5C82.88 49 84 50.12 84 51.5V62.5C84 63.88 82.88 65 81.5 65H62.5C61.12 65 60 63.88 60 62.5V51.5ZM62.5 51C62.3674 51 62.2402 51.0527 62.1464 51.1464C62.0527 51.2402 62 51.3674 62 51.5V53H63C63.2652 53 63.5196 52.8946 63.7071 52.7071C63.8946 52.5196 64 52.2652 64 52V51H62.5ZM62 62.5C62 62.776 62.224 63 62.5 63H64V62C64 61.7348 63.8946 61.4804 63.7071 61.2929C63.5196 61.1054 63.2652 61 63 61H62V62.5ZM66 62V63H78V62C78 61.2044 78.3161 60.4413 78.8787 59.8787C79.4413 59.3161 80.2044 59 81 59H82V55H81C80.2044 55 79.4413 54.6839 78.8787 54.1213C78.3161 53.5587 78 52.7956 78 52V51H66V52C66 52.7956 65.6839 53.5587 65.1213 54.1213C64.5587 54.6839 63.7956 55 63 55H62V59H63C63.7956 59 64.5587 59.3161 65.1213 59.8787C65.6839 60.4413 66 61.2044 66 62ZM80 63H81.5C81.6326 63 81.7598 62.9473 81.8536 62.8536C81.9473 62.7598 82 62.6326 82 62.5V61H81C80.7348 61 80.4804 61.1054 80.2929 61.2929C80.1054 61.4804 80 61.7348 80 62V63ZM82 53V51.5C82 51.3674 81.9473 51.2402 81.8536 51.1464C81.7598 51.0527 81.6326 51 81.5 51H80V52C80 52.2652 80.1054 52.5196 80.2929 52.7071C80.4804 52.8946 80.7348 53 81 53H82ZM67 69C66.3664 69.0002 65.7491 68.7999 65.2364 68.4277C64.7237 68.0555 64.342 67.5305 64.146 66.928C64.424 66.976 64.708 67 65 67H81.5C82.6935 67 83.8381 66.5259 84.682 65.682C85.5259 64.8381 86 63.6935 86 62.5V53.17C86.5852 53.3769 87.0917 53.7602 87.4499 54.267C87.8081 54.7739 88.0003 55.3793 88 56V62.5C88 63.3536 87.8319 64.1988 87.5052 64.9874C87.1786 65.7761 86.6998 66.4926 86.0962 67.0962C85.4926 67.6998 84.7761 68.1786 83.9874 68.5052C83.1988 68.8319 82.3536 69 81.5 69H67Z" fill="#18AFF0"/>
</mask>
<g mask="url(#mask0_42_856)">
<rect x="60" y="49" width="24" height="16" fill="#FC377E"/>
</g>
<defs>
<filter id="filter0_d_42_856" x="0" y="0" width="148" height="148" filterUnits="userSpaceOnUse" color-interpolation-filters="sRGB">
<feFlood flood-opacity="0" result="BackgroundImageFix"/>
<feColorMatrix in="SourceAlpha" type="matrix" values="0 0 0 0 0 0 0 0 0 0 0 0 0 0 0 0 0 0 127 0" result="hardAlpha"/>
<feOffset dy="15"/>
<feGaussianBlur stdDeviation="22"/>
<feColorMatrix type="matrix" values="0 0 0 0 0.0509804 0 0 0 0 0.0588235 0 0 0 0 0.109804 0 0 0 0.12 0"/>
<feBlend mode="normal" in2="BackgroundImageFix" result="effect1_dropShadow_42_856"/>
<feBlend mode="normal" in="SourceGraphic" in2="effect1_dropShadow_42_856" result="shape"/>
</filter>
</defs>
</svg>
