<svg width="148" height="148" viewBox="0 0 148 148" fill="none" xmlns="http://www.w3.org/2000/svg">
<g filter="url(#filter0_d_42_1015)">
<circle cx="74" cy="59" r="30" fill="white"/>
</g>
<path d="M84.6667 53.6667H76.6667C74.4533 53.6667 72.6667 55.4534 72.6667 57.6667V67C72.6667 69.2134 74.4533 71 76.6667 71L75.6095 72.0572C75.4327 72.234 75.3333 72.4747 75.3333 72.7247C75.3333 73.2438 75.7541 73.6667 76.2732 73.6667C76.5249 73.6667 76.7661 73.5657 76.9428 73.3864L79.0396 71.2582C79.2275 71.0674 79.4841 70.96 79.7519 70.96H81.5814C81.8492 70.96 82.1058 71.0674 82.2938 71.2582L84.3906 73.3864C84.5672 73.5657 84.8084 73.6667 85.0601 73.6667C85.5792 73.6667 86 73.2438 86 72.7247C86 72.4747 85.9007 72.234 85.7239 72.0572L84.6667 71C86.88 71 88.6667 69.2134 88.6667 67V57.6667C88.6667 55.4534 86.88 53.6667 84.6667 53.6667ZM76.6667 68.3334C75.9333 68.3334 75.3333 67.7334 75.3333 67C75.3333 66.2667 75.9333 65.6667 76.6667 65.6667C77.4 65.6667 78 66.2667 78 67C78 67.7334 77.4 68.3334 76.6667 68.3334ZM84.6667 68.3334C83.9333 68.3334 83.3333 67.7334 83.3333 67C83.3333 66.2667 83.9333 65.6667 84.6667 65.6667C85.4 65.6667 86 66.2667 86 67C86 67.7334 85.4 68.3334 84.6667 68.3334ZM86 63.3334C86 63.8856 85.5523 64.3334 85 64.3334H76.3333C75.781 64.3334 75.3333 63.8856 75.3333 63.3334V57.3334C75.3333 56.7811 75.781 56.3334 76.3333 56.3334H85C85.5523 56.3334 86 56.7811 86 57.3334V63.3334ZM67.2313 62.0221C67.01 62.2434 66.9051 62.5555 66.9477 62.8655L67.266 65.1774C67.3084 65.4858 67.2049 65.7964 66.9858 66.0176L66.8725 66.1319C66.4031 66.6058 65.6101 66.496 65.2871 65.9124L63.7256 63.091C63.6348 62.927 63.4997 62.7918 63.3358 62.7008L60.482 61.1174C59.9043 60.7968 59.7907 60.014 60.2535 59.5425L60.3901 59.4033C60.6141 59.175 60.9338 59.0677 61.2502 59.1145L63.5823 59.4597C63.8954 59.506 64.212 59.4014 64.4358 59.1776L68.2801 55.3332C68.7566 54.8568 68.635 54.055 68.0387 53.7412L60.5391 49.7945C59.9415 49.48 59.821 48.6758 60.3002 48.2L60.835 47.6689C61.0788 47.4268 61.4297 47.3269 61.7644 47.4041L72.94 49.9821C73.2759 50.0596 73.6281 49.9586 73.8719 49.7148L78.6667 44.92C79.4133 44.14 80.7467 44.14 81.4933 44.92C82.28 45.7067 82.28 47 81.4933 47.7467L77.0764 52.1637C76.9677 52.2723 76.8203 52.3334 76.6667 52.3334C73.72 52.3334 71.3333 54.72 71.3333 57.6667C71.3333 57.8289 71.2689 57.9845 71.1542 58.0992L67.2313 62.0221Z" fill="#18AFF0"/>
<mask id="mask0_42_1015" style="mask-type:alpha" maskUnits="userSpaceOnUse" x="59" y="44" width="30" height="30">
<path d="M84.6667 53.6666H76.6667C74.4533 53.6666 72.6667 55.4533 72.6667 57.6666V67C72.6667 69.2133 74.4533 71 76.6667 71L75.6095 72.0572C75.4327 72.234 75.3333 72.4746 75.3333 72.7247C75.3333 73.2438 75.7541 73.6666 76.2732 73.6666C76.5249 73.6666 76.7661 73.5657 76.9428 73.3864L79.0396 71.2581C79.2275 71.0674 79.4841 70.96 79.7519 70.96H81.5814C81.8492 70.96 82.1058 71.0674 82.2938 71.2581L84.3905 73.3864C84.5672 73.5657 84.8084 73.6666 85.0601 73.6666C85.5792 73.6666 86 73.2438 86 72.7247C86 72.4746 85.9007 72.234 85.7239 72.0572L84.6667 71C86.88 71 88.6667 69.2133 88.6667 67V57.6666C88.6667 55.4533 86.88 53.6666 84.6667 53.6666ZM76.6667 68.3333C75.9333 68.3333 75.3333 67.7333 75.3333 67C75.3333 66.2666 75.9333 65.6666 76.6667 65.6666C77.4 65.6666 78 66.2666 78 67C78 67.7333 77.4 68.3333 76.6667 68.3333ZM84.6667 68.3333C83.9333 68.3333 83.3333 67.7333 83.3333 67C83.3333 66.2666 83.9333 65.6666 84.6667 65.6666C85.4 65.6666 86 66.2666 86 67C86 67.7333 85.4 68.3333 84.6667 68.3333ZM86 63.3333C86 63.8856 85.5523 64.3333 85 64.3333H76.3333C75.781 64.3333 75.3333 63.8856 75.3333 63.3333V57.3333C75.3333 56.781 75.781 56.3333 76.3333 56.3333H85C85.5523 56.3333 86 56.781 86 57.3333V63.3333ZM67.2313 62.022C67.01 62.2433 66.9051 62.5554 66.9477 62.8655L67.266 65.1774C67.3084 65.4858 67.2048 65.7963 66.9858 66.0175L66.8725 66.1319C66.4031 66.6057 65.6101 66.496 65.2871 65.9124L63.7256 63.091C63.6348 62.9269 63.4997 62.7917 63.3358 62.7008L60.482 61.1173C59.9043 60.7968 59.7907 60.014 60.2535 59.5424L60.3901 59.4032C60.6141 59.175 60.9338 59.0677 61.2502 59.1145L63.5823 59.4596C63.8954 59.506 64.212 59.4013 64.4358 59.1775L68.2801 55.3332C68.7566 54.8567 68.635 54.0549 68.0387 53.7411L60.5391 49.7945C59.9415 49.48 59.821 48.6758 60.3002 48.1999L60.835 47.6688C61.0788 47.4268 61.4297 47.3268 61.7644 47.404L72.94 49.9821C73.2759 50.0596 73.6281 49.9585 73.8719 49.7148L78.6667 44.92C79.4133 44.14 80.7467 44.14 81.4933 44.92C82.28 45.7066 82.28 47 81.4933 47.7466L77.0764 52.1636C76.9677 52.2722 76.8203 52.3333 76.6667 52.3333C73.72 52.3333 71.3333 54.72 71.3333 57.6666C71.3333 57.8288 71.2689 57.9844 71.1542 58.0991L67.2313 62.022Z" fill="#18AFF0"/>
</mask>
<g mask="url(#mask0_42_1015)">
<path d="M72 59C72 55.6863 74.6863 53 78 53H89V74H72V59Z" fill="#FC377E"/>
</g>
<defs>
<filter id="filter0_d_42_1015" x="0" y="0" width="148" height="148" filterUnits="userSpaceOnUse" color-interpolation-filters="sRGB">
<feFlood flood-opacity="0" result="BackgroundImageFix"/>
<feColorMatrix in="SourceAlpha" type="matrix" values="0 0 0 0 0 0 0 0 0 0 0 0 0 0 0 0 0 0 127 0" result="hardAlpha"/>
<feOffset dy="15"/>
<feGaussianBlur stdDeviation="22"/>
<feColorMatrix type="matrix" values="0 0 0 0 0.0509804 0 0 0 0 0.0588235 0 0 0 0 0.109804 0 0 0 0.12 0"/>
<feBlend mode="normal" in2="BackgroundImageFix" result="effect1_dropShadow_42_1015"/>
<feBlend mode="normal" in="SourceGraphic" in2="effect1_dropShadow_42_1015" result="shape"/>
</filter>
</defs>
</svg>
