<svg width="148" height="148" viewBox="0 0 148 148" fill="none" xmlns="http://www.w3.org/2000/svg">
<g filter="url(#filter0_d_42_881)">
<circle cx="74" cy="59" r="30" fill="white"/>
</g>
<path d="M72.4 46.2C70.7026 46.2 69.0748 46.8743 67.8745 48.0745C66.6743 49.2748 66 50.9026 66 52.6C66 54.2974 66.6743 55.9253 67.8745 57.1255C69.0748 58.3257 70.7026 59 72.4 59C74.0974 59 75.7253 58.3257 76.9255 57.1255C78.1257 55.9253 78.8 54.2974 78.8 52.6C78.8 50.9026 78.1257 49.2748 76.9255 48.0745C75.7253 46.8743 74.0974 46.2 72.4 46.2ZM64.4144 60.6C63.993 60.5983 63.5755 60.6798 63.1857 60.8399C62.7958 60.9999 62.4415 61.2353 62.1428 61.5326C61.8442 61.8299 61.6072 62.1833 61.4454 62.5723C61.2836 62.9614 61.2002 63.3786 61.2 63.8C61.2 66.5056 62.5328 68.5456 64.616 69.8752C66.6672 71.1824 69.432 71.8 72.4 71.8C73.928 71.8 75.4016 71.6368 76.752 71.2992L73.824 68.096C72.8813 67.0662 72.3715 65.7128 72.4004 64.3169C72.4293 62.9211 72.9947 61.59 73.9792 60.6H64.4112H64.4144ZM81.1984 62.2048L80.1936 61.416C79.4373 60.8216 78.4849 60.5335 77.5259 60.6091C76.5669 60.6846 75.6714 61.1183 75.0174 61.8238C74.3635 62.5294 73.999 63.4551 73.9963 64.4171C73.9937 65.3791 74.3531 66.3069 75.0032 67.016L80.608 73.144C80.683 73.226 80.7742 73.2915 80.8758 73.3362C80.9775 73.381 81.0873 73.4042 81.1984 73.4042C81.3095 73.4042 81.4194 73.381 81.521 73.3362C81.6226 73.2915 81.7139 73.226 81.7888 73.144L87.3952 67.016C88.0453 66.3069 88.4047 65.3791 88.4021 64.4171C88.3995 63.4551 88.0349 62.5294 87.381 61.8238C86.7271 61.1183 85.8316 60.6846 84.8725 60.6091C83.9135 60.5335 82.9612 60.8216 82.2048 61.416L81.1984 62.2048Z" fill="#18AFF0"/>
<mask id="mask0_42_881" style="mask-type:alpha" maskUnits="userSpaceOnUse" x="61" y="46" width="28" height="28">
<path d="M72.4 46.2C70.7026 46.2 69.0748 46.8743 67.8745 48.0745C66.6743 49.2748 66 50.9026 66 52.6C66 54.2974 66.6743 55.9253 67.8745 57.1255C69.0748 58.3257 70.7026 59 72.4 59C74.0974 59 75.7253 58.3257 76.9255 57.1255C78.1257 55.9253 78.8 54.2974 78.8 52.6C78.8 50.9026 78.1257 49.2748 76.9255 48.0745C75.7253 46.8743 74.0974 46.2 72.4 46.2ZM64.4144 60.6C63.993 60.5983 63.5755 60.6798 63.1857 60.8399C62.7958 60.9999 62.4415 61.2353 62.1428 61.5326C61.8442 61.8299 61.6072 62.1833 61.4454 62.5723C61.2836 62.9614 61.2002 63.3786 61.2 63.8C61.2 66.5056 62.5328 68.5456 64.616 69.8752C66.6672 71.1824 69.432 71.8 72.4 71.8C73.928 71.8 75.4016 71.6368 76.752 71.2992L73.824 68.096C72.8813 67.0662 72.3715 65.7128 72.4004 64.3169C72.4293 62.9211 72.9947 61.59 73.9792 60.6H64.4112H64.4144ZM81.1984 62.2048L80.1936 61.416C79.4373 60.8216 78.4849 60.5335 77.5259 60.6091C76.5669 60.6846 75.6714 61.1183 75.0174 61.8238C74.3635 62.5294 73.999 63.4551 73.9963 64.4171C73.9937 65.3791 74.3531 66.3069 75.0032 67.016L80.608 73.144C80.683 73.226 80.7742 73.2915 80.8758 73.3362C80.9775 73.381 81.0873 73.4042 81.1984 73.4042C81.3095 73.4042 81.4194 73.381 81.521 73.3362C81.6226 73.2915 81.7139 73.226 81.7888 73.144L87.3952 67.016C88.0453 66.3069 88.4047 65.3791 88.4021 64.4171C88.3995 63.4551 88.0349 62.5294 87.381 61.8238C86.7271 61.1183 85.8316 60.6846 84.8725 60.6091C83.9135 60.5335 82.9612 60.8216 82.2048 61.416L81.1984 62.2048Z" fill="#18AFF0"/>
</mask>
<g mask="url(#mask0_42_881)">
<path d="M73.832 65.4413C73.3114 64.2266 73.4244 62.8331 74.1339 61.7181L75.207 60.0318C76.0025 58.7818 77.4237 58.0739 78.9007 58.1921L85.319 58.7055C87.3978 58.8718 89 60.6073 89 62.6928V70.6371C89 72.983 86.9905 74.8253 84.6535 74.622L82.2729 74.415C79.3343 74.1595 76.7747 72.3077 75.6128 69.5965L73.832 65.4413Z" fill="#FC377E"/>
</g>
<defs>
<filter id="filter0_d_42_881" x="0" y="0" width="148" height="148" filterUnits="userSpaceOnUse" color-interpolation-filters="sRGB">
<feFlood flood-opacity="0" result="BackgroundImageFix"/>
<feColorMatrix in="SourceAlpha" type="matrix" values="0 0 0 0 0 0 0 0 0 0 0 0 0 0 0 0 0 0 127 0" result="hardAlpha"/>
<feOffset dy="15"/>
<feGaussianBlur stdDeviation="22"/>
<feColorMatrix type="matrix" values="0 0 0 0 0.0509804 0 0 0 0 0.0588235 0 0 0 0 0.109804 0 0 0 0.12 0"/>
<feBlend mode="normal" in2="BackgroundImageFix" result="effect1_dropShadow_42_881"/>
<feBlend mode="normal" in="SourceGraphic" in2="effect1_dropShadow_42_881" result="shape"/>
</filter>
</defs>
</svg>
