<svg width="148" height="148" viewBox="0 0 148 148" fill="none" xmlns="http://www.w3.org/2000/svg">
<g filter="url(#filter0_d_42_873)">
<circle cx="74" cy="59" r="30" fill="white"/>
</g>
<path d="M67.6 52.6V50.2C67.6 49.6496 67.704 49.1328 67.912 48.6496C68.12 48.1584 68.408 47.7328 68.7744 47.3744C69.1328 47.008 69.5584 46.72 70.0496 46.512C70.5328 46.304 71.0496 46.2 71.6 46.2C72.0496 46.2 72.4784 46.2704 72.888 46.4128C73.2976 46.5552 73.672 46.7552 74.0128 47.0128C74.6969 46.4855 75.5363 46.1996 76.4 46.2C77.1884 46.1965 77.96 46.4275 78.6167 46.8637C79.2734 47.2999 79.7856 47.9215 80.088 48.6496C80.296 49.1328 80.4 49.6496 80.4 50.2V52.6H82C82.4244 52.6 82.8313 52.7686 83.1314 53.0686C83.4315 53.3687 83.6 53.7756 83.6 54.2V58.3456C82.8762 57.735 81.9598 57.4 81.0128 57.4H77.2V52.6H78.8V50.2C78.8 49.8672 78.7376 49.5536 78.6128 49.2624C78.4317 48.8259 78.1243 48.4534 77.73 48.1929C77.3358 47.9323 76.8726 47.7955 76.4 47.8C75.9088 47.8 75.4672 47.9376 75.0752 48.2128C75.4201 48.8183 75.6009 49.5032 75.6 50.2V57.4832C74.6955 57.6715 73.8835 58.1657 73.3006 58.8826C72.7178 59.5995 72.3998 60.4953 72.4 61.4192V66.0256C72.4 67.0768 72.8128 68.088 73.5488 68.8384L76.448 71.8H69.2C67.9302 71.7997 66.7123 71.2963 65.8128 70.4C65.3738 69.962 65.022 69.4445 64.776 68.8752C64.5233 68.2826 64.3953 67.6442 64.4 67V54.2C64.4 53.7756 64.5686 53.3687 64.8687 53.0686C65.1687 52.7686 65.5757 52.6 66 52.6H67.6ZM74 52.6V50.2C74 49.8672 73.9376 49.5536 73.8128 49.2624C73.6317 48.8259 73.3243 48.4534 72.93 48.1929C72.5358 47.9323 72.0726 47.7955 71.6 47.8C71.2672 47.8 70.9536 47.8624 70.6624 47.9872C70.2259 48.1683 69.8535 48.4757 69.5929 48.87C69.3323 49.2643 69.1955 49.7274 69.2 50.2V52.6H74ZM74.6912 67.72C74.2476 67.267 73.9994 66.658 74 66.024V61.4192C73.9996 61.1016 74.0618 60.7871 74.183 60.4936C74.3042 60.2002 74.4821 59.9334 74.7065 59.7088C74.9309 59.4841 75.1974 59.3058 75.4907 59.1842C75.7841 59.0626 76.0985 59 76.416 59H81.0128C81.6576 59 82.2752 59.2576 82.728 59.7152L87.6992 64.7392C87.9249 64.967 88.103 65.2374 88.2233 65.5347C88.3436 65.8319 88.4036 66.1501 88.3998 66.4708C88.3961 66.7914 88.3287 67.1081 88.2016 67.4025C88.0745 67.6969 87.8901 67.9631 87.6592 68.1856L82.944 72.7248C82.4856 73.1665 81.8712 73.4092 81.2346 73.3999C80.5981 73.3906 79.991 73.1301 79.5456 72.6752L74.6912 67.72ZM77.2 63.4C77.2 63.7183 77.3265 64.0235 77.5515 64.2485C77.7765 64.4736 78.0818 64.6 78.4 64.6C78.7183 64.6 79.0235 64.4736 79.2486 64.2485C79.4736 64.0235 79.6 63.7183 79.6 63.4C79.6 63.0817 79.4736 62.7765 79.2486 62.5515C79.0235 62.3264 78.7183 62.2 78.4 62.2C78.0818 62.2 77.7765 62.3264 77.5515 62.5515C77.3265 62.7765 77.2 63.0817 77.2 63.4Z" fill="#FC377E"/>
<mask id="mask0_42_873" style="mask-type:alpha" maskUnits="userSpaceOnUse" x="64" y="46" width="25" height="28">
<path d="M67.6 52.6V50.2C67.6 49.6496 67.704 49.1328 67.912 48.6496C68.12 48.1584 68.408 47.7328 68.7744 47.3744C69.1328 47.008 69.5584 46.72 70.0496 46.512C70.5328 46.304 71.0496 46.2 71.6 46.2C72.0496 46.2 72.4784 46.2704 72.888 46.4128C73.2976 46.5552 73.672 46.7552 74.0128 47.0128C74.6969 46.4855 75.5363 46.1996 76.4 46.2C77.1884 46.1965 77.96 46.4275 78.6167 46.8637C79.2734 47.2999 79.7856 47.9215 80.088 48.6496C80.296 49.1328 80.4 49.6496 80.4 50.2V52.6H82C82.4244 52.6 82.8313 52.7686 83.1314 53.0686C83.4315 53.3687 83.6 53.7756 83.6 54.2V58.3456C82.8762 57.735 81.9598 57.4 81.0128 57.4H77.2V52.6H78.8V50.2C78.8 49.8672 78.7376 49.5536 78.6128 49.2624C78.4317 48.8259 78.1243 48.4534 77.73 48.1929C77.3358 47.9323 76.8726 47.7955 76.4 47.8C75.9088 47.8 75.4672 47.9376 75.0752 48.2128C75.4201 48.8183 75.6009 49.5032 75.6 50.2V57.4832C74.6955 57.6715 73.8835 58.1657 73.3006 58.8826C72.7178 59.5995 72.3998 60.4953 72.4 61.4192V66.0256C72.4 67.0768 72.8128 68.088 73.5488 68.8384L76.448 71.8H69.2C67.9302 71.7997 66.7123 71.2963 65.8128 70.4C65.3738 69.962 65.022 69.4445 64.776 68.8752C64.5233 68.2826 64.3953 67.6442 64.4 67V54.2C64.4 53.7756 64.5686 53.3687 64.8687 53.0686C65.1687 52.7686 65.5757 52.6 66 52.6H67.6ZM74 52.6V50.2C74 49.8672 73.9376 49.5536 73.8128 49.2624C73.6317 48.8259 73.3243 48.4534 72.93 48.1929C72.5358 47.9323 72.0726 47.7955 71.6 47.8C71.2672 47.8 70.9536 47.8624 70.6624 47.9872C70.2259 48.1683 69.8535 48.4757 69.5929 48.87C69.3323 49.2643 69.1955 49.7274 69.2 50.2V52.6H74ZM74.6912 67.72C74.2476 67.267 73.9994 66.658 74 66.024V61.4192C73.9996 61.1016 74.0618 60.7871 74.183 60.4936C74.3042 60.2002 74.4821 59.9334 74.7065 59.7088C74.9309 59.4841 75.1974 59.3058 75.4907 59.1842C75.7841 59.0626 76.0985 59 76.416 59H81.0128C81.6576 59 82.2752 59.2576 82.728 59.7152L87.6992 64.7392C87.9249 64.967 88.103 65.2374 88.2233 65.5347C88.3436 65.8319 88.4036 66.1501 88.3998 66.4708C88.3961 66.7914 88.3287 67.1081 88.2016 67.4025C88.0745 67.6969 87.8901 67.9631 87.6592 68.1856L82.944 72.7248C82.4856 73.1665 81.8712 73.4092 81.2346 73.3999C80.5981 73.3906 79.991 73.1301 79.5456 72.6752L74.6912 67.72ZM77.2 63.4C77.2 63.7183 77.3265 64.0235 77.5515 64.2485C77.7765 64.4736 78.0818 64.6 78.4 64.6C78.7183 64.6 79.0235 64.4736 79.2486 64.2485C79.4736 64.0235 79.6 63.7183 79.6 63.4C79.6 63.0817 79.4736 62.7765 79.2486 62.5515C79.0235 62.3264 78.7183 62.2 78.4 62.2C78.0818 62.2 77.7765 62.3264 77.5515 62.5515C77.3265 62.7765 77.2 63.0817 77.2 63.4Z" fill="#FC377E"/>
</mask>
<g mask="url(#mask0_42_873)">
<path d="M74 59H90V74L81.5 76.5L74 68.5V59Z" fill="#18AFF0"/>
</g>
<defs>
<filter id="filter0_d_42_873" x="0" y="0" width="148" height="148" filterUnits="userSpaceOnUse" color-interpolation-filters="sRGB">
<feFlood flood-opacity="0" result="BackgroundImageFix"/>
<feColorMatrix in="SourceAlpha" type="matrix" values="0 0 0 0 0 0 0 0 0 0 0 0 0 0 0 0 0 0 127 0" result="hardAlpha"/>
<feOffset dy="15"/>
<feGaussianBlur stdDeviation="22"/>
<feColorMatrix type="matrix" values="0 0 0 0 0.0509804 0 0 0 0 0.0588235 0 0 0 0 0.109804 0 0 0 0.12 0"/>
<feBlend mode="normal" in2="BackgroundImageFix" result="effect1_dropShadow_42_873"/>
<feBlend mode="normal" in="SourceGraphic" in2="effect1_dropShadow_42_873" result="shape"/>
</filter>
</defs>
</svg>
