<svg width="148" height="148" viewBox="0 0 148 148" fill="none" xmlns="http://www.w3.org/2000/svg">
<g filter="url(#filter0_d_42_1007)">
<circle cx="74" cy="59" r="30" fill="white"/>
</g>
<path d="M65.5 47C65.2281 46.9999 64.9612 47.0737 64.728 47.2136C64.4948 47.3534 64.304 47.5541 64.176 47.794L60.176 55.294C60.0393 55.5503 59.98 55.8407 60.0052 56.1301C60.0304 56.4194 60.1391 56.6952 60.318 56.924L70.186 69.556C70.0617 69.0467 69.9993 68.5243 70 68C69.9997 67.0451 70.2729 66.1102 70.7871 65.3056C71.3014 64.5011 72.0353 63.8607 72.902 63.46L71.196 58H73.082C73.2702 56.8833 73.7717 55.8429 74.528 55H70.796L72.046 50H75.954L76.808 53.414C77.7607 53.0394 78.7937 52.9154 79.808 53.054L79.048 50H81.6L84.266 55H83.472C84.1497 55.7544 84.6244 56.6688 84.8514 57.6572C85.0785 58.6456 85.0505 59.6754 84.77 60.65L87.682 56.924C87.8606 56.695 87.9689 56.4191 87.9938 56.1298C88.0186 55.8404 87.959 55.5501 87.822 55.294L83.822 47.794C83.6942 47.5544 83.5037 47.3539 83.2708 47.2141C83.038 47.0743 82.7716 47.0003 82.5 47H65.5ZM63.734 55L66.4 50H68.954L67.704 55H63.734ZM64.966 58H68.054L70.112 64.586L64.966 58ZM83 59C83 60.0609 82.5786 61.0783 81.8284 61.8284C81.0783 62.5786 80.0609 63 79 63C77.9391 63 76.9217 62.5786 76.1716 61.8284C75.4214 61.0783 75 60.0609 75 59C75 57.9391 75.4214 56.9217 76.1716 56.1716C76.9217 55.4214 77.9391 55 79 55C80.0609 55 81.0783 55.4214 81.8284 56.1716C82.5786 56.9217 83 57.9391 83 59ZM86 68C86 70.49 84 73 79 73C74 73 72 70.5 72 68C72 67.2044 72.3161 66.4413 72.8787 65.8787C73.4413 65.3161 74.2043 65 75 65H83C83.7956 65 84.5587 65.3161 85.1213 65.8787C85.6839 66.4413 86 67.2044 86 68Z" fill="#18AFF0"/>
<mask id="mask0_42_1007" style="mask-type:alpha" maskUnits="userSpaceOnUse" x="59" y="47" width="29" height="26">
<path d="M65.5 47C65.2281 46.9999 64.9612 47.0737 64.728 47.2136C64.4948 47.3534 64.304 47.5541 64.176 47.794L60.176 55.294C60.0393 55.5503 59.98 55.8407 60.0052 56.1301C60.0304 56.4194 60.1391 56.6952 60.318 56.924L70.186 69.556C70.0617 69.0467 69.9993 68.5243 70 68C69.9997 67.0451 70.2729 66.1102 70.7871 65.3056C71.3014 64.5011 72.0353 63.8607 72.902 63.46L71.196 58H73.082C73.2702 56.8833 73.7717 55.8429 74.528 55H70.796L72.046 50H75.954L76.808 53.414C77.7607 53.0394 78.7937 52.9154 79.808 53.054L79.048 50H81.6L84.266 55H83.472C84.1497 55.7544 84.6244 56.6688 84.8514 57.6572C85.0785 58.6456 85.0505 59.6754 84.77 60.65L87.682 56.924C87.8606 56.695 87.9689 56.4191 87.9938 56.1298C88.0186 55.8404 87.959 55.5501 87.822 55.294L83.822 47.794C83.6942 47.5544 83.5037 47.3539 83.2708 47.2141C83.038 47.0743 82.7716 47.0003 82.5 47H65.5ZM63.734 55L66.4 50H68.954L67.704 55H63.734ZM64.966 58H68.054L70.112 64.586L64.966 58ZM83 59C83 60.0609 82.5786 61.0783 81.8284 61.8284C81.0783 62.5786 80.0609 63 79 63C77.9391 63 76.9217 62.5786 76.1716 61.8284C75.4214 61.0783 75 60.0609 75 59C75 57.9391 75.4214 56.9217 76.1716 56.1716C76.9217 55.4214 77.9391 55 79 55C80.0609 55 81.0783 55.4214 81.8284 56.1716C82.5786 56.9217 83 57.9391 83 59ZM86 68C86 70.49 84 73 79 73C74 73 72 70.5 72 68C72 67.2044 72.3161 66.4413 72.8787 65.8787C73.4413 65.3161 74.2043 65 75 65H83C83.7956 65 84.5587 65.3161 85.1213 65.8787C85.6839 66.4413 86 67.2044 86 68Z" fill="#18AFF0"/>
</mask>
<g mask="url(#mask0_42_1007)">
<path d="M73.5 59L75.5 55.5L78 54H81.5L83.5 57.5L84 62.5L88 67L85.5 73L78 74.5L73.5 73L71 69L72 65.5L75.5 63.5L73.5 59Z" fill="#FC377E"/>
</g>
<defs>
<filter id="filter0_d_42_1007" x="0" y="0" width="148" height="148" filterUnits="userSpaceOnUse" color-interpolation-filters="sRGB">
<feFlood flood-opacity="0" result="BackgroundImageFix"/>
<feColorMatrix in="SourceAlpha" type="matrix" values="0 0 0 0 0 0 0 0 0 0 0 0 0 0 0 0 0 0 127 0" result="hardAlpha"/>
<feOffset dy="15"/>
<feGaussianBlur stdDeviation="22"/>
<feColorMatrix type="matrix" values="0 0 0 0 0.0509804 0 0 0 0 0.0588235 0 0 0 0 0.109804 0 0 0 0.12 0"/>
<feBlend mode="normal" in2="BackgroundImageFix" result="effect1_dropShadow_42_1007"/>
<feBlend mode="normal" in="SourceGraphic" in2="effect1_dropShadow_42_1007" result="shape"/>
</filter>
</defs>
</svg>
