<svg width="144" height="144" viewBox="0 0 144 144" fill="none" xmlns="http://www.w3.org/2000/svg">
<g filter="url(#filter0_d_42_864)">
<circle cx="72" cy="57" r="28" fill="white"/>
</g>
<path d="M67.7088 51.4C67.9776 50.0032 68.344 48.7488 68.7808 47.688C69.2624 46.5152 69.8176 45.6176 70.3936 45.0272C70.9664 44.4384 71.5088 44.2 72 44.2C72.4912 44.2 73.0336 44.4384 73.6064 45.0272C74.1824 45.6192 74.7376 46.5152 75.2192 47.688C75.656 48.7488 76.0224 50.0032 76.2912 51.4H67.7088ZM67.3008 47.08C67.6423 46.219 68.0866 45.4024 68.624 44.648C66.8658 45.1307 65.2306 45.9826 63.8274 47.1468C62.4242 48.3111 61.2853 49.761 60.4864 51.4H66.0816C66.3728 49.7888 66.7872 48.3248 67.3008 47.08ZM76.6992 47.08C76.3576 46.2196 75.9133 45.4036 75.376 44.6496C77.1341 45.1321 78.7692 45.9838 80.1724 47.1477C81.5756 48.3117 82.7146 49.7613 83.5136 51.4H77.9184C77.6272 49.7888 77.2128 48.3248 76.6992 47.08ZM78.16 53H84.1632C84.6293 54.4207 84.8426 55.9121 84.7936 57.4064C83.9044 56.6713 82.8787 56.1191 81.7755 55.7814C80.6722 55.4436 79.5132 55.3271 78.3648 55.4384C78.3277 54.6233 78.2594 53.8099 78.16 53ZM76.776 55.7376C76.7411 54.8221 76.6647 53.9086 76.5472 53H67.4528C67.2826 54.3265 67.1982 55.6626 67.2 57C67.2 58.4 67.2896 59.7424 67.4528 61H71C71.494 59.7382 72.272 58.6071 73.2737 57.6945C74.2753 56.7819 75.4738 56.1123 76.776 55.7376ZM70.544 62.6H67.7088C67.9776 63.9968 68.344 65.2512 68.7808 66.312C69.2624 67.4848 69.8176 68.3824 70.3936 68.9728C70.9664 69.5616 71.5088 69.8 72 69.8C72.1216 69.8 72.2464 69.784 72.3744 69.7536C71.0948 68.1859 70.3972 66.2237 70.4 64.2C70.4 63.6544 70.4496 63.1184 70.544 62.6ZM60.4848 62.6C61.284 64.2389 62.4233 65.6886 63.8268 66.8526C65.2302 68.0166 66.8656 68.8681 68.624 69.3504C68.0863 68.5971 67.6415 67.7816 67.2992 66.9216C66.7872 65.6736 66.3712 64.2112 66.08 62.6H60.4848ZM65.8384 61H59.8368C59.4134 59.709 59.1984 58.3587 59.2 57C59.2 55.6032 59.424 54.2592 59.8368 53H65.84C65.6832 54.272 65.6 55.6144 65.6 57C65.6 58.3856 65.6816 59.728 65.8384 61ZM79.2 71.4C81.1096 71.4 82.9409 70.6414 84.2912 69.2912C85.6414 67.9409 86.4 66.1096 86.4 64.2C86.4 62.2905 85.6414 60.4591 84.2912 59.1088C82.9409 57.7586 81.1096 57 79.2 57C77.2905 57 75.4591 57.7586 74.1089 59.1088C72.7586 60.4591 72 62.2905 72 64.2C72 66.1096 72.7586 67.9409 74.1089 69.2912C75.4591 70.6414 77.2905 71.4 79.2 71.4ZM80.7264 62.4272H83.1968C83.9728 62.4272 84.296 63.4624 83.6688 63.9376L81.6688 65.4528L82.432 67.904C82.672 68.672 81.8272 69.312 81.2 68.8368L79.2 67.3216L77.2 68.8368C76.5728 69.312 75.728 68.672 75.968 67.904L76.7312 65.4528L74.7312 63.9376C74.104 63.4624 74.4272 62.4272 75.2016 62.4272H77.6752L78.4384 59.9776C78.4846 59.8111 78.5841 59.6644 78.7217 59.5598C78.8592 59.4552 79.0272 59.3986 79.2 59.3986C79.3728 59.3986 79.5408 59.4552 79.6784 59.5598C79.8159 59.6644 79.9154 59.8111 79.9616 59.9776L80.7248 62.4272H80.7264Z" fill="#18AFF0"/>
<mask id="mask0_42_864" style="mask-type:alpha" maskUnits="userSpaceOnUse" x="59" y="44" width="28" height="28">
<path d="M67.7088 51.4C67.9776 50.0032 68.344 48.7488 68.7808 47.688C69.2624 46.5152 69.8176 45.6176 70.3936 45.0272C70.9664 44.4384 71.5088 44.2 72 44.2C72.4912 44.2 73.0336 44.4384 73.6064 45.0272C74.1824 45.6192 74.7376 46.5152 75.2192 47.688C75.656 48.7488 76.0224 50.0032 76.2912 51.4H67.7088ZM67.3008 47.08C67.6423 46.219 68.0866 45.4024 68.624 44.648C66.8658 45.1307 65.2306 45.9826 63.8274 47.1468C62.4242 48.3111 61.2853 49.761 60.4864 51.4H66.0816C66.3728 49.7888 66.7872 48.3248 67.3008 47.08ZM76.6992 47.08C76.3576 46.2196 75.9133 45.4036 75.376 44.6496C77.1341 45.1321 78.7692 45.9838 80.1724 47.1477C81.5756 48.3117 82.7146 49.7613 83.5136 51.4H77.9184C77.6272 49.7888 77.2128 48.3248 76.6992 47.08ZM78.16 53H84.1632C84.6293 54.4207 84.8426 55.9121 84.7936 57.4064C83.9044 56.6713 82.8787 56.1191 81.7755 55.7814C80.6722 55.4436 79.5132 55.3271 78.3648 55.4384C78.3277 54.6233 78.2594 53.8099 78.16 53ZM76.776 55.7376C76.7411 54.8221 76.6647 53.9086 76.5472 53H67.4528C67.2826 54.3265 67.1982 55.6626 67.2 57C67.2 58.4 67.2896 59.7424 67.4528 61H71C71.494 59.7382 72.272 58.6071 73.2737 57.6945C74.2753 56.7819 75.4738 56.1123 76.776 55.7376ZM70.544 62.6H67.7088C67.9776 63.9968 68.344 65.2512 68.7808 66.312C69.2624 67.4848 69.8176 68.3824 70.3936 68.9728C70.9664 69.5616 71.5088 69.8 72 69.8C72.1216 69.8 72.2464 69.784 72.3744 69.7536C71.0948 68.1859 70.3972 66.2237 70.4 64.2C70.4 63.6544 70.4496 63.1184 70.544 62.6ZM60.4848 62.6C61.284 64.2389 62.4233 65.6886 63.8268 66.8526C65.2302 68.0166 66.8656 68.8681 68.624 69.3504C68.0863 68.5971 67.6415 67.7816 67.2992 66.9216C66.7872 65.6736 66.3712 64.2112 66.08 62.6H60.4848ZM65.8384 61H59.8368C59.4134 59.709 59.1984 58.3587 59.2 57C59.2 55.6032 59.424 54.2592 59.8368 53H65.84C65.6832 54.272 65.6 55.6144 65.6 57C65.6 58.3856 65.6816 59.728 65.8384 61ZM79.2 71.4C81.1096 71.4 82.9409 70.6414 84.2912 69.2912C85.6414 67.9409 86.4 66.1096 86.4 64.2C86.4 62.2905 85.6414 60.4591 84.2912 59.1088C82.9409 57.7586 81.1096 57 79.2 57C77.2905 57 75.4591 57.7586 74.1089 59.1088C72.7586 60.4591 72 62.2905 72 64.2C72 66.1096 72.7586 67.9409 74.1089 69.2912C75.4591 70.6414 77.2905 71.4 79.2 71.4ZM80.7264 62.4272H83.1968C83.9728 62.4272 84.296 63.4624 83.6688 63.9376L81.6688 65.4528L82.432 67.904C82.672 68.672 81.8272 69.312 81.2 68.8368L79.2 67.3216L77.2 68.8368C76.5728 69.312 75.728 68.672 75.968 67.904L76.7312 65.4528L74.7312 63.9376C74.104 63.4624 74.4272 62.4272 75.2016 62.4272H77.6752L78.4384 59.9776C78.4846 59.8111 78.5841 59.6644 78.7217 59.5598C78.8592 59.4552 79.0272 59.3986 79.2 59.3986C79.3728 59.3986 79.5408 59.4552 79.6784 59.5598C79.8159 59.6644 79.9154 59.8111 79.9616 59.9776L80.7248 62.4272H80.7264Z" fill="#18AFF0"/>
</mask>
<g mask="url(#mask0_42_864)">
<circle cx="79" cy="64" r="8" fill="#FC377E"/>
</g>
<defs>
<filter id="filter0_d_42_864" x="0" y="0" width="144" height="144" filterUnits="userSpaceOnUse" color-interpolation-filters="sRGB">
<feFlood flood-opacity="0" result="BackgroundImageFix"/>
<feColorMatrix in="SourceAlpha" type="matrix" values="0 0 0 0 0 0 0 0 0 0 0 0 0 0 0 0 0 0 127 0" result="hardAlpha"/>
<feOffset dy="15"/>
<feGaussianBlur stdDeviation="22"/>
<feColorMatrix type="matrix" values="0 0 0 0 0.0509804 0 0 0 0 0.0588235 0 0 0 0 0.109804 0 0 0 0.12 0"/>
<feBlend mode="normal" in2="BackgroundImageFix" result="effect1_dropShadow_42_864"/>
<feBlend mode="normal" in="SourceGraphic" in2="effect1_dropShadow_42_864" result="shape"/>
</filter>
</defs>
</svg>
