<svg width="148" height="148" viewBox="0 0 148 148" fill="none" xmlns="http://www.w3.org/2000/svg">
<g filter="url(#filter0_d_42_999)">
<circle cx="74" cy="59" r="30" fill="white"/>
</g>
<path d="M70.7792 49.688C70.3007 50.887 69.9421 52.1304 69.7088 53.4H78.2912C78.0574 52.1303 77.6983 50.8869 77.2192 49.688C76.7376 48.5152 76.1824 47.6176 75.6064 47.0272C75.0336 46.4384 74.4912 46.2 74 46.2C73.5088 46.2 72.9664 46.4384 72.3936 47.0272C71.8176 47.6192 71.2624 48.5152 70.7792 49.688ZM70.6256 46.6496C70.1232 47.3312 69.6816 48.1552 69.3008 49.0784C68.7888 50.3264 68.3728 51.7888 68.0816 53.4H62.4864C63.2856 51.7612 64.4249 50.3114 65.8283 49.1475C67.2318 47.9835 68.8672 47.1319 70.6256 46.6496ZM77.376 46.6496C77.8768 47.3312 78.32 48.1552 78.6992 49.0784C79.2112 50.3264 79.6272 51.7888 79.9184 53.4H85.5136C84.7144 51.7612 83.5751 50.3114 82.1717 49.1475C80.7682 47.9835 79.1344 47.1319 77.376 46.6496ZM86.1632 55H80.16C80.28 55.9792 80.3584 57 80.3872 58.0496C81.4423 57.4345 82.6923 57.2451 83.8822 57.5202C85.0721 57.7952 86.1123 58.5139 86.7904 59.5296C86.8551 57.9943 86.6427 56.4599 86.1632 55ZM78.8 59C78.8 59.1856 78.7984 59.3696 78.7952 59.552C78.1215 60.5664 77.8605 61.7997 78.0656 63H69.4528C69.2826 61.6735 69.1982 60.3374 69.2 59C69.2 57.6 69.2896 56.256 69.4528 55H78.5472C78.7104 56.256 78.8 57.6 78.8 59ZM78.2912 64.6C78.2176 64.9824 78.136 65.352 78.0496 65.712C77.3236 66.0173 76.7038 66.5301 76.268 67.1862C75.8323 67.8423 75.5999 68.6124 75.6 69.4C75.6 69.864 75.6608 70.328 75.784 70.7792C75.7271 70.8454 75.6685 70.9099 75.608 70.9728C75.0336 71.5616 74.4912 71.8 74 71.8C73.5088 71.8 72.9664 71.5616 72.3936 70.9728C71.8176 70.3808 71.2624 69.4848 70.7792 68.312C70.3006 67.1131 69.9421 65.8697 69.7088 64.6H78.2912ZM70.624 71.3504C68.8659 70.8679 67.2308 70.0163 65.8276 68.8523C64.4245 67.6883 63.2854 66.2387 62.4864 64.6H68.0816C68.3728 66.2112 68.7872 67.6752 69.3008 68.92C69.68 69.8448 70.1216 70.6688 70.624 71.3504ZM61.8368 63H67.84C67.6786 61.6728 67.5985 60.337 67.6 59C67.6 57.6144 67.6832 56.272 67.84 55H61.8368C61.4134 56.2911 61.1984 57.6413 61.2 59C61.2 60.3968 61.424 61.7408 61.8368 63ZM86 62.2C86 63.0487 85.6629 63.8626 85.0627 64.4628C84.4626 65.0629 83.6487 65.4 82.8 65.4C81.9513 65.4 81.1374 65.0629 80.5373 64.4628C79.9371 63.8626 79.6 63.0487 79.6 62.2C79.6 61.3513 79.9371 60.5374 80.5373 59.9373C81.1374 59.3372 81.9513 59 82.8 59C83.6487 59 84.4626 59.3372 85.0627 59.9373C85.6629 60.5374 86 61.3513 86 62.2ZM88.4 69.4C88.4 71.392 86.8 73.4 82.8 73.4C78.8 73.4 77.2 71.4 77.2 69.4C77.2 68.7635 77.4529 68.153 77.9029 67.703C78.353 67.2529 78.9635 67 79.6 67H86C86.6365 67 87.247 67.2529 87.6971 67.703C88.1471 68.153 88.4 68.7635 88.4 69.4Z" fill="#18AFF0"/>
<mask id="mask0_42_999" style="mask-type:alpha" maskUnits="userSpaceOnUse" x="61" y="46" width="28" height="28">
<path d="M70.7792 49.688C70.3007 50.887 69.9421 52.1304 69.7088 53.4H78.2912C78.0574 52.1303 77.6983 50.8869 77.2192 49.688C76.7376 48.5152 76.1824 47.6176 75.6064 47.0272C75.0336 46.4384 74.4912 46.2 74 46.2C73.5088 46.2 72.9664 46.4384 72.3936 47.0272C71.8176 47.6192 71.2624 48.5152 70.7792 49.688ZM70.6256 46.6496C70.1232 47.3312 69.6816 48.1552 69.3008 49.0784C68.7888 50.3264 68.3728 51.7888 68.0816 53.4H62.4864C63.2856 51.7612 64.4249 50.3114 65.8283 49.1475C67.2318 47.9835 68.8672 47.1319 70.6256 46.6496ZM77.376 46.6496C77.8768 47.3312 78.32 48.1552 78.6992 49.0784C79.2112 50.3264 79.6272 51.7888 79.9184 53.4H85.5136C84.7144 51.7612 83.5751 50.3114 82.1717 49.1475C80.7682 47.9835 79.1344 47.1319 77.376 46.6496ZM86.1632 55H80.16C80.28 55.9792 80.3584 57 80.3872 58.0496C81.4423 57.4345 82.6923 57.2451 83.8822 57.5202C85.0721 57.7952 86.1123 58.5139 86.7904 59.5296C86.8551 57.9943 86.6427 56.4599 86.1632 55ZM78.8 59C78.8 59.1856 78.7984 59.3696 78.7952 59.552C78.1215 60.5664 77.8605 61.7997 78.0656 63H69.4528C69.2826 61.6735 69.1982 60.3374 69.2 59C69.2 57.6 69.2896 56.256 69.4528 55H78.5472C78.7104 56.256 78.8 57.6 78.8 59ZM78.2912 64.6C78.2176 64.9824 78.136 65.352 78.0496 65.712C77.3236 66.0173 76.7038 66.5301 76.268 67.1862C75.8323 67.8423 75.5999 68.6124 75.6 69.4C75.6 69.864 75.6608 70.328 75.784 70.7792C75.7271 70.8454 75.6685 70.9099 75.608 70.9728C75.0336 71.5616 74.4912 71.8 74 71.8C73.5088 71.8 72.9664 71.5616 72.3936 70.9728C71.8176 70.3808 71.2624 69.4848 70.7792 68.312C70.3006 67.1131 69.9421 65.8697 69.7088 64.6H78.2912ZM70.624 71.3504C68.8659 70.8679 67.2308 70.0163 65.8276 68.8523C64.4245 67.6883 63.2854 66.2387 62.4864 64.6H68.0816C68.3728 66.2112 68.7872 67.6752 69.3008 68.92C69.68 69.8448 70.1216 70.6688 70.624 71.3504ZM61.8368 63H67.84C67.6786 61.6728 67.5985 60.337 67.6 59C67.6 57.6144 67.6832 56.272 67.84 55H61.8368C61.4134 56.2911 61.1984 57.6413 61.2 59C61.2 60.3968 61.424 61.7408 61.8368 63ZM86 62.2C86 63.0487 85.6629 63.8626 85.0627 64.4628C84.4626 65.0629 83.6487 65.4 82.8 65.4C81.9513 65.4 81.1374 65.0629 80.5373 64.4628C79.9371 63.8626 79.6 63.0487 79.6 62.2C79.6 61.3513 79.9371 60.5374 80.5373 59.9373C81.1374 59.3372 81.9513 59 82.8 59C83.6487 59 84.4626 59.3372 85.0627 59.9373C85.6629 60.5374 86 61.3513 86 62.2ZM88.4 69.4C88.4 71.392 86.8 73.4 82.8 73.4C78.8 73.4 77.2 71.4 77.2 69.4C77.2 68.7635 77.4529 68.153 77.9029 67.703C78.353 67.2529 78.9635 67 79.6 67H86C86.6365 67 87.247 67.2529 87.6971 67.703C88.1471 68.153 88.4 68.7635 88.4 69.4Z" fill="#18AFF0"/>
</mask>
<g mask="url(#mask0_42_999)">
<path d="M79.5 59H85.5L89 65.5V74H77V68.5L79.5 65.5L78.5 62L79.5 59Z" fill="#FC377E"/>
</g>
<defs>
<filter id="filter0_d_42_999" x="0" y="0" width="148" height="148" filterUnits="userSpaceOnUse" color-interpolation-filters="sRGB">
<feFlood flood-opacity="0" result="BackgroundImageFix"/>
<feColorMatrix in="SourceAlpha" type="matrix" values="0 0 0 0 0 0 0 0 0 0 0 0 0 0 0 0 0 0 127 0" result="hardAlpha"/>
<feOffset dy="15"/>
<feGaussianBlur stdDeviation="22"/>
<feColorMatrix type="matrix" values="0 0 0 0 0.0509804 0 0 0 0 0.0588235 0 0 0 0 0.109804 0 0 0 0.12 0"/>
<feBlend mode="normal" in2="BackgroundImageFix" result="effect1_dropShadow_42_999"/>
<feBlend mode="normal" in="SourceGraphic" in2="effect1_dropShadow_42_999" result="shape"/>
</filter>
</defs>
</svg>
